<svg xmlns="http://www.w3.org/2000/svg" width="512" height="512" viewBox="0 0 512 512" role="img" aria-label="Digilock icon">
  <defs>
    <linearGradient id="g" x1="0" y1="0" x2="1" y2="1">
      <stop offset="0%" stop-color="#7C3AED"/>
      <stop offset="100%" stop-color="#06B6D4"/>
    </linearGradient>
  </defs>
  <rect width="512" height="512" rx="96" fill="#020617"/>
  <rect x="96" y="128" width="320" height="256" rx="44" fill="url(#g)" opacity="0.2"/>
  <path d="M170.67 234.67a85.33 85.33 0 1 1 170.66 0V256H362.67c11.78 0 21.33 9.55 21.33 21.33v85.34c0 11.78-9.55 21.33-21.33 21.33H149.33c-11.78 0-21.33-9.55-21.33-21.33v-85.34c0-11.78 9.55-21.33 21.33-21.33h21.34v-21.33Zm42.66 21.33h85.34v-21.33a42.67 42.67 0 1 0-85.34 0V256Z" fill="url(#g)"/>
</svg>
